<svg width="24" height="24" viewBox="0 0 24 24" xmlns="http://www.w3.org/2000/svg">
  <rect x="4" y="4" width="16" height="16" rx="2" fill="#FFFFFF" fill-opacity=".20"/>
  <path d="M7 7h10M7 11h10M7 15h10M7 7v10M11 7v10M15 7v10" fill="none" stroke="#FFFFFF" stroke-opacity=".42" stroke-width="1.2" stroke-linecap="round"/>
  <path d="M8.2 16.2c1.8.7 4.5.7 6.1-.7 1.2-1.1.9-2.9-.7-3.1-1.6-.3-2.4 1.1-1.3 2.1.8.7 2.5.3 3.7-.9 1.4-1.3 1.4-3.2-.1-4.1-1.6-.9-4.2-.2-5.5 1.6" fill="none" stroke="#FFFFFF" stroke-width="2.1" stroke-linecap="round" stroke-linejoin="round"/>
  <rect x="4" y="4" width="16" height="16" rx="2" fill="none" stroke="#FFFFFF" stroke-width="1.5"/>
</svg>
